<svg xmlns="http://www.w3.org/2000/svg" viewBox="0 0 128 128" role="img" aria-label="AgroNexo">
  <defs>
    <linearGradient id="g" x1="18" y1="14" x2="112" y2="116" gradientUnits="userSpaceOnUse">
      <stop offset="0" stop-color="#86efac"/>
      <stop offset="0.48" stop-color="#12b981"/>
      <stop offset="1" stop-color="#0f6b4f"/>
    </linearGradient>
    <filter id="s" x="-20%" y="-20%" width="140%" height="140%">
      <feDropShadow dx="0" dy="8" stdDeviation="8" flood-color="#073428" flood-opacity=".22"/>
    </filter>
  </defs>
  <path filter="url(#s)" d="M64 8 111.63 35.5v55L64 118 16.37 90.5v-55L64 8Z" fill="url(#g)"/>
  <path d="M64 20 101.24 41.5v43L64 106 26.76 84.5v-43L64 20Z" fill="#ecfdf5" opacity=".18"/>
  <path d="M38 77c18-31 44-30 61-7-24-4-40 4-52 20-8-2-13-6-9-13Z" fill="#ecfdf5"/>
  <path d="M36 76c18 0 35-8 51-24" fill="none" stroke="#0f6b4f" stroke-width="6" stroke-linecap="round"/>
  <circle cx="38" cy="76" r="6" fill="#073428"/>
  <circle cx="64" cy="62" r="6" fill="#073428"/>
  <circle cx="88" cy="49" r="6" fill="#073428"/>
  <path d="M38 76h26l24-27" fill="none" stroke="#073428" stroke-width="4" stroke-linecap="round" stroke-linejoin="round" opacity=".82"/>
</svg>